<?xml version="1.0" encoding="utf-8"?>
<!-- Generator: Adobe Illustrator 19.1.0, SVG Export Plug-In . SVG Version: 6.00 Build 0)  -->
<svg version="1.1" id="Layer_1" xmlns="http://www.w3.org/2000/svg" xmlns:xlink="http://www.w3.org/1999/xlink" x="0px" y="0px"
	 viewBox="0 0 480 481" style="enable-background:new 0 0 480 481;" xml:space="preserve">
<style type="text/css">
	.st0{fill:#FFFFFF;stroke:#FFFFFF;stroke-width:1.000000e-02;}
	.st1{fill:#FFFFFF;stroke:#FFFFFF;stroke-miterlimit:10;}
	.st2{font-family:'Helvetica';}
	.st3{font-size:29.2984px;}
	.st4{font-size:29.2971px;}
	.st5{font-size:29.297px;}
	.st6{font-size:29.2962px;}
	.st7{font-size:29.2985px;}
	.st8{font-size:29.2978px;}
	.st9{font-size:29.298px;}
	.st10{font-size:29.2964px;}
	.st11{font-size:29.2987px;}
	.st12{font-size:29.2968px;}
	.st13{font-size:29.2963px;}
	.st14{font-size:29.2974px;}
	.st15{font-size:29.2981px;}
	.st16{font-size:29.2982px;}
	.st17{font-size:29.2973px;}
	.st18{font-size:29.2979px;}
	.st19{font-size:29.2988px;}
	.st20{font-size:29.3008px;}
	.st21{font-size:29.3011px;}
	.st22{font-size:29.2993px;}
	.st23{font-size:29.3009px;}
	.st24{font-size:29.3015px;}
	.st25{font-size:29.2986px;}
	.st26{font-size:29.2994px;}
	.st27{font-size:29.299px;}
	.st28{font-size:29.3002px;}
	.st29{font-size:29.3014px;}
	.st30{font-size:29.3006px;}
	.st31{font-size:29.3px;}
	.st32{font-size:29.2992px;}
	.st33{font-size:29.3004px;}
	.st34{font-size:29.3016px;}
	.st35{font-size:29.3005px;}
	.st36{font-size:29.2989px;}
	.st37{font-size:29.3003px;}
	.st38{font-size:29.3012px;}
	.st39{font-size:29.2995px;}
	.st40{font-size:29.3013px;}
	.st41{font-size:29.3001px;}
	.st42{font-size:29.301px;}
	.st43{font-size:29.3017px;}
	.st44{font-size:29.2997px;}
	.st45{fill:#007EC6;}
	.st46{fill:#264078;}
</style>
<g id="Layer_2">
	<ellipse class="st0" cx="238.5" cy="237.6" rx="199.8" ry="198.4"/>
</g>
<g>
	<text transform="matrix(0.4701 0.8827 -0.8827 0.4701 26.2031 341.0068)" class="st1 st2 st3">U</text>
	<text transform="matrix(0.4701 0.8827 -0.8827 0.4701 26.2031 341.0068)" class="st0 st2 st3">U</text>
	<text transform="matrix(0.527 0.8499 -0.8499 0.527 36.769 360.3291)" class="st1 st2 st4">.</text>
	<text transform="matrix(0.527 0.8499 -0.8499 0.527 36.769 360.3291)" class="st0 st2 st4">.</text>
	<text transform="matrix(0.5788 0.8155 -0.8155 0.5788 41.3804 368.0518)" class="st1 st2 st5">S</text>
	<text transform="matrix(0.5788 0.8155 -0.8155 0.5788 41.3804 368.0518)" class="st0 st2 st5">S</text>
	<text transform="matrix(0.6286 0.7778 -0.7778 0.6286 53.3379 384.543)" class="st1 st2 st6">.</text>
	<text transform="matrix(0.6286 0.7778 -0.7778 0.6286 53.3379 384.543)" class="st0 st2 st6">.</text>
	<text transform="matrix(0.7054 0.709 -0.709 0.7054 64.5791 398.208)" class="st1 st2 st7">D</text>
	<text transform="matrix(0.7054 0.709 -0.709 0.7054 64.5791 398.208)" class="st0 st2 st7">D</text>
	<text transform="matrix(0.7676 0.6411 -0.6411 0.7676 80.4321 414.0098)" class="st1 st2 st8">E</text>
	<text transform="matrix(0.7676 0.6411 -0.6411 0.7676 80.4321 414.0098)" class="st0 st2 st8">E</text>
	<text transform="matrix(0.8213 0.5706 -0.5706 0.8213 96.3774 427.2568)" class="st1 st2 st9">P</text>
	<text transform="matrix(0.8213 0.5706 -0.5706 0.8213 96.3774 427.2568)" class="st0 st2 st9">P</text>
	<text transform="matrix(0.8683 0.4961 -0.4961 0.8683 113.4253 439.0361)" class="st1 st2 st5">A</text>
	<text transform="matrix(0.8683 0.4961 -0.4961 0.8683 113.4253 439.0361)" class="st0 st2 st5">A</text>
	<text transform="matrix(0.9097 0.4153 -0.4153 0.9097 131.4609 449.3184)" class="st1 st2 st10">R</text>
	<text transform="matrix(0.9097 0.4153 -0.4153 0.9097 131.4609 449.3184)" class="st0 st2 st10">R</text>
	<text transform="matrix(0.9422 0.3351 -0.3351 0.9422 151.8193 458.4805)" class="st1 st2 st10">T</text>
	<text transform="matrix(0.9422 0.3351 -0.3351 0.9422 151.8193 458.4805)" class="st0 st2 st10">T</text>
	<text transform="matrix(0.9698 0.2443 -0.2443 0.9698 169.8789 465.0068)" class="st1 st2 st11">M</text>
	<text transform="matrix(0.9698 0.2443 -0.2443 0.9698 169.8789 465.0068)" class="st0 st2 st11">M</text>
	<text transform="matrix(0.9892 0.1468 -0.1468 0.9892 194.8833 471.1123)" class="st1 st2 st12">E</text>
	<text transform="matrix(0.9892 0.1468 -0.1468 0.9892 194.8833 471.1123)" class="st0 st2 st12">E</text>
	<text transform="matrix(0.9985 5.510000e-02 -5.510000e-02 0.9985 215.4507 474.1445)" class="st1 st2 st13">N</text>
	<text transform="matrix(0.9985 5.510000e-02 -5.510000e-02 0.9985 215.4507 474.1445)" class="st0 st2 st13">N</text>
	<text transform="matrix(0.9995 -3.330000e-02 3.330000e-02 0.9995 237.7637 475.251)" class="st1 st2 st14">T</text>
	<text transform="matrix(0.9995 -3.330000e-02 3.330000e-02 0.9995 237.7637 475.251)" class="st0 st2 st14">T</text>
	<text transform="matrix(0.987 -0.1612 0.1612 0.987 265.5195 473.8447)" class="st1 st2 st15">O</text>
	<text transform="matrix(0.987 -0.1612 0.1612 0.987 265.5195 473.8447)" class="st0 st2 st15">O</text>
	<text transform="matrix(0.9682 -0.2505 0.2505 0.9682 289.1904 469.8096)" class="st1 st2 st16">F</text>
	<text transform="matrix(0.9682 -0.2505 0.2505 0.9682 289.1904 469.8096)" class="st0 st2 st16">F</text>
	<text transform="matrix(0.9298 -0.3682 0.3682 0.9298 315.8965 462.373)" class="st1 st2 st14">C</text>
	<text transform="matrix(0.9298 -0.3682 0.3682 0.9298 315.8965 462.373)" class="st0 st2 st14">C</text>
	<text transform="matrix(0.8892 -0.4577 0.4577 0.8892 336.7881 454.0732)" class="st1 st2 st7">O</text>
	<text transform="matrix(0.8892 -0.4577 0.4577 0.8892 336.7881 454.0732)" class="st0 st2 st7">O</text>
	<text transform="matrix(0.8358 -0.5491 0.5491 0.8358 358.3086 442.9541)" class="st1 st2 st17">M</text>
	<text transform="matrix(0.8358 -0.5491 0.5491 0.8358 358.3086 442.9541)" class="st0 st2 st17">M</text>
	<text transform="matrix(0.7706 -0.6375 0.6375 0.7706 379.8926 428.6787)" class="st1 st2 st18">M</text>
	<text transform="matrix(0.7706 -0.6375 0.6375 0.7706 379.8926 428.6787)" class="st0 st2 st18">M</text>
	<text transform="matrix(0.7036 -0.7108 0.7108 0.7036 399.5967 412.1396)" class="st1 st2 st19">E</text>
	<text transform="matrix(0.7036 -0.7108 0.7108 0.7036 399.5967 412.1396)" class="st0 st2 st19">E</text>
	<text transform="matrix(0.6351 -0.7725 0.7725 0.6351 414.2012 397.3564)" class="st1 st2 st9">R</text>
	<text transform="matrix(0.6351 -0.7725 0.7725 0.6351 414.2012 397.3564)" class="st0 st2 st9">R</text>
	<text transform="matrix(0.5583 -0.8297 0.8297 0.5583 428.4014 379.9863)" class="st1 st2 st8">C</text>
	<text transform="matrix(0.5583 -0.8297 0.8297 0.5583 428.4014 379.9863)" class="st0 st2 st8">C</text>
	<text transform="matrix(0.4801 -0.8773 0.8773 0.4801 440.8154 361.3711)" class="st1 st2 st3">E</text>
	<text transform="matrix(0.4801 -0.8773 0.8773 0.4801 440.8154 361.3711)" class="st0 st2 st3">E</text>
	<text transform="matrix(-0.2872 -0.958 0.958 -0.2872 37.4775 310.2148)" class="st1 st2 st20">N</text>
	<text transform="matrix(-0.2872 -0.958 0.958 -0.2872 37.4775 310.2148)" class="st0 st2 st20">N</text>
	<text transform="matrix(-0.1973 -0.9804 0.9804 -0.1973 31.5518 290.3926)" class="st1 st2 st19">A</text>
	<text transform="matrix(-0.1973 -0.9804 0.9804 -0.1973 31.5518 290.3926)" class="st0 st2 st19">A</text>
	<text transform="matrix(-0.1133 -0.9937 0.9937 -0.1133 27.7964 271.6504)" class="st1 st2 st21">T</text>
	<text transform="matrix(-0.1133 -0.9937 0.9937 -0.1133 27.7964 271.6504)" class="st0 st2 st21">T</text>
	<text transform="matrix(-5.430000e-02 -0.9986 0.9986 -5.430000e-02 25.9365 254.1504)" class="st1 st2 st22">I</text>
	<text transform="matrix(-5.430000e-02 -0.9986 0.9986 -5.430000e-02 25.9365 254.1504)" class="st0 st2 st22">I</text>
	<text transform="matrix(1.610000e-02 -1 1 1.610000e-02 25.2422 246.3643)" class="st1 st2 st23">O</text>
	<text transform="matrix(1.610000e-02 -1 1 1.610000e-02 25.2422 246.3643)" class="st0 st2 st23">O</text>
	<text transform="matrix(0.116 -0.9934 0.9934 0.116 25.6162 224.0771)" class="st1 st2 st24">N</text>
	<text transform="matrix(0.116 -0.9934 0.9934 0.116 25.6162 224.0771)" class="st0 st2 st24">N</text>
	<text transform="matrix(0.2079 -0.9782 0.9782 0.2079 28.0308 203.5342)" class="st1 st2 st25">A</text>
	<text transform="matrix(0.2079 -0.9782 0.9782 0.2079 28.0308 203.5342)" class="st0 st2 st25">A</text>
	<text transform="matrix(0.2877 -0.9578 0.9578 0.2877 32.0562 184.8384)" class="st1 st2 st26">L</text>
	<text transform="matrix(0.2877 -0.9578 0.9578 0.2877 32.0562 184.8384)" class="st0 st2 st26">L</text>
	<text transform="matrix(0.4073 -0.9134 0.9134 0.4073 39.167 162.1104)" class="st1 st2 st27">O</text>
	<text transform="matrix(0.4073 -0.9134 0.9134 0.4073 39.167 162.1104)" class="st0 st2 st27">O</text>
	<text transform="matrix(0.4972 -0.8678 0.8678 0.4972 48.2563 141.7651)" class="st1 st2 st28">C</text>
	<text transform="matrix(0.4972 -0.8678 0.8678 0.4972 48.2563 141.7651)" class="st0 st2 st28">C</text>
	<text transform="matrix(0.5754 -0.8181 0.8181 0.5754 58.5547 123.8267)" class="st1 st2 st29">E</text>
	<text transform="matrix(0.5754 -0.8181 0.8181 0.5754 58.5547 123.8267)" class="st0 st2 st29">E</text>
	<text transform="matrix(0.645 -0.7644 0.7644 0.645 69.5337 108.1841)" class="st1 st2 st20">A</text>
	<text transform="matrix(0.645 -0.7644 0.7644 0.645 69.5337 108.1841)" class="st0 st2 st20">A</text>
	<text transform="matrix(0.7128 -0.7016 0.7016 0.7128 81.7988 93.5562)" class="st1 st2 st30">N</text>
	<text transform="matrix(0.7128 -0.7016 0.7016 0.7128 81.7988 93.5562)" class="st0 st2 st30">N</text>
	<text transform="matrix(0.7582 -0.6522 0.6522 0.7582 96.77 79.1069)" class="st1 st2 st22">I</text>
	<text transform="matrix(0.7582 -0.6522 0.6522 0.7582 96.77 79.1069)" class="st0 st2 st22">I</text>
	<text transform="matrix(0.8004 -0.5997 0.5997 0.8004 102.5518 73.8286)" class="st1 st2 st31">C</text>
	<text transform="matrix(0.8004 -0.5997 0.5997 0.8004 102.5518 73.8286)" class="st0 st2 st31">C</text>
	<text transform="matrix(0.872 -0.4897 0.4897 0.872 125.7988 57.0957)" class="st1 st2 st19">A</text>
	<text transform="matrix(0.872 -0.4897 0.4897 0.872 125.7988 57.0957)" class="st0 st2 st19">A</text>
	<text transform="matrix(0.9139 -0.4061 0.4061 0.9139 142.4077 47.7012)" class="st1 st2 st32">N</text>
	<text transform="matrix(0.9139 -0.4061 0.4061 0.9139 142.4077 47.7012)" class="st0 st2 st32">N</text>
	<text transform="matrix(0.9489 -0.3159 0.3159 0.9489 161.2891 39.2856)" class="st1 st2 st28">D</text>
	<text transform="matrix(0.9489 -0.3159 0.3159 0.9489 161.2891 39.2856)" class="st0 st2 st28">D</text>
	<text transform="matrix(0.9818 -0.1905 0.1905 0.9818 188.6353 30.749)" class="st1 st2 st33">A</text>
	<text transform="matrix(0.9818 -0.1905 0.1905 0.9818 188.6353 30.749)" class="st0 st2 st33">A</text>
	<text transform="matrix(0.9944 -0.1063 0.1063 0.9944 207.4033 27.125)" class="st1 st2 st27">T</text>
	<text transform="matrix(0.9944 -0.1063 0.1063 0.9944 207.4033 27.125)" class="st0 st2 st27">T</text>
	<text transform="matrix(1.0001 -1.040000e-02 1.040000e-02 1.0001 224.7231 25.0928)" class="st1 st2 st34">M</text>
	<text transform="matrix(1.0001 -1.040000e-02 1.040000e-02 1.0001 224.7231 25.0928)" class="st0 st2 st34">M</text>
	<text transform="matrix(0.9954 9.700000e-02 -9.700000e-02 0.9954 248.5869 24.8594)" class="st1 st2 st35">O</text>
	<text transform="matrix(0.9954 9.700000e-02 -9.700000e-02 0.9954 248.5869 24.8594)" class="st0 st2 st35">O</text>
	<text transform="matrix(0.9813 0.1928 -0.1928 0.9813 270.7793 27.0771)" class="st1 st2 st36">S</text>
	<text transform="matrix(0.9813 0.1928 -0.1928 0.9813 270.7793 27.0771)" class="st0 st2 st36">S</text>
	<text transform="matrix(0.9601 0.28 -0.28 0.9601 289.5176 30.7378)" class="st1 st2 st31">P</text>
	<text transform="matrix(0.9601 0.28 -0.28 0.9601 289.5176 30.7378)" class="st0 st2 st31">P</text>
	<text transform="matrix(0.9297 0.3687 -0.3687 0.9297 307.8477 36.0215)" class="st1 st2 st37">H</text>
	<text transform="matrix(0.9297 0.3687 -0.3687 0.9297 307.8477 36.0215)" class="st0 st2 st37">H</text>
	<text transform="matrix(0.8912 0.4539 -0.4539 0.8912 327.0654 43.6592)" class="st1 st2 st38">E</text>
	<text transform="matrix(0.8912 0.4539 -0.4539 0.8912 327.0654 43.6592)" class="st0 st2 st38">E</text>
	<text transform="matrix(0.8451 0.5349 -0.5349 0.8451 344.0918 52.2676)" class="st1 st2 st35">R</text>
	<text transform="matrix(0.8451 0.5349 -0.5349 0.8451 344.0918 52.2676)" class="st0 st2 st35">R</text>
	<text transform="matrix(0.8077 0.5898 -0.5898 0.8077 361.5615 63.5679)" class="st1 st2 st39">I</text>
	<text transform="matrix(0.8077 0.5898 -0.5898 0.8077 361.5615 63.5679)" class="st0 st2 st39">I</text>
	<text transform="matrix(0.7672 0.6417 -0.6417 0.7672 368.0234 68.0083)" class="st1 st2 st29">C</text>
	<text transform="matrix(0.7672 0.6417 -0.6417 0.7672 368.0234 68.0083)" class="st0 st2 st29">C</text>
	<text transform="matrix(0.6778 0.7355 -0.7355 0.6778 389.6562 86.7988)" class="st1 st2 st40">A</text>
	<text transform="matrix(0.6778 0.7355 -0.7355 0.6778 389.6562 86.7988)" class="st0 st2 st40">A</text>
	<text transform="matrix(0.6061 0.7956 -0.7956 0.6061 402.6318 100.791)" class="st1 st2 st20">D</text>
	<text transform="matrix(0.6061 0.7956 -0.7956 0.6061 402.6318 100.791)" class="st0 st2 st20">D</text>
	<text transform="matrix(0.5194 0.8547 -0.8547 0.5194 415.2305 117.1431)" class="st1 st2 st28">M</text>
	<text transform="matrix(0.5194 0.8547 -0.8547 0.5194 415.2305 117.1431)" class="st0 st2 st28">M</text>
	<text transform="matrix(0.4541 0.8911 -0.8911 0.4541 427.4531 137.8125)" class="st1 st2 st31">I</text>
	<text transform="matrix(0.4541 0.8911 -0.8911 0.4541 427.4531 137.8125)" class="st0 st2 st31">I</text>
	<text transform="matrix(0.3931 0.9196 -0.9196 0.3931 431.2109 144.6816)" class="st1 st2 st41">N</text>
	<text transform="matrix(0.3931 0.9196 -0.9196 0.3931 431.2109 144.6816)" class="st0 st2 st41">N</text>
	<text transform="matrix(0.3306 0.9439 -0.9439 0.3306 439.1982 163.8926)" class="st1 st2 st20">I</text>
	<text transform="matrix(0.3306 0.9439 -0.9439 0.3306 439.1982 163.8926)" class="st0 st2 st20">I</text>
	<text transform="matrix(0.2704 0.9629 -0.9629 0.2704 441.9688 171.2295)" class="st1 st2 st24">S</text>
	<text transform="matrix(0.2704 0.9629 -0.9629 0.2704 441.9688 171.2295)" class="st0 st2 st24">S</text>
	<text transform="matrix(0.1875 0.9824 -0.9824 0.1875 447.1221 189.6382)" class="st1 st2 st42">T</text>
	<text transform="matrix(0.1875 0.9824 -0.9824 0.1875 447.1221 189.6382)" class="st0 st2 st42">T</text>
	<text transform="matrix(9.960000e-02 0.9951 -0.9951 9.960000e-02 450.4854 206.7764)" class="st1 st2 st32">R</text>
	<text transform="matrix(9.960000e-02 0.9951 -0.9951 9.960000e-02 450.4854 206.7764)" class="st0 st2 st32">R</text>
	<text transform="matrix(7.300000e-03 1.0001 -1.0001 7.300000e-03 452.5312 227.3638)" class="st1 st2 st20">A</text>
	<text transform="matrix(7.300000e-03 1.0001 -1.0001 7.300000e-03 452.5312 227.3638)" class="st0 st2 st20">A</text>
	<text transform="matrix(-7.790000e-02 0.9971 -0.9971 -7.790000e-02 452.6543 246.4775)" class="st1 st2 st21">T</text>
	<text transform="matrix(-7.790000e-02 0.9971 -0.9971 -7.790000e-02 452.6543 246.4775)" class="st0 st2 st21">T</text>
	<text transform="matrix(-0.1371 0.9907 -0.9907 -0.1371 451.1484 264.0088)" class="st1 st2 st38">I</text>
	<text transform="matrix(-0.1371 0.9907 -0.9907 -0.1371 451.1484 264.0088)" class="st0 st2 st38">I</text>
	<text transform="matrix(-0.207 0.9785 -0.9785 -0.207 450.3477 271.7822)" class="st1 st2 st43">O</text>
	<text transform="matrix(-0.207 0.9785 -0.9785 -0.207 450.3477 271.7822)" class="st0 st2 st43">O</text>
	<text transform="matrix(-0.3045 0.9526 -0.9526 -0.3045 445.7217 293.582)" class="st1 st2 st44">N</text>
	<text transform="matrix(-0.3045 0.9526 -0.9526 -0.3045 445.7217 293.582)" class="st0 st2 st44">N</text>
</g>
<path class="st45" d="M418.5,149.2c0.1,0,24.8,48.8,20.4,100.6l0,0c-2.4,87.1-79.4,186-194.1,189.2l-16-0.3
	C110.5,432.8,37.8,332.5,38.2,241.8l0,0c0.3-16.9,0.2-35.7,7.3-59l7.2,2.2c30.3,11.5,63,100,169.3,105c4.6,0.2,13.5,0.4,13.5,0.5
	c-6.9,6.9-46,23-63.8,27.2c4.6-1.1-0.4-0.1,0,0l0,0c42.8,26.5,85.5-24.5,141-32l17-1c-3.2-10.2-17.9-9.4-19.2-9.2
	c-38.4,3.8-28.8-0.6-30-0.2c59-18.5,93-65.8,135.5-123.2L418.5,149.2z"/>
<path class="st46" d="M239.3,37.1C238.8,37.1,238.6,37.1,239.3,37.1L239.3,37.1z"/>
<path class="st46" d="M240.8,37.2c0,0-0.5,0-1,0C240.1,37.2,240.4,37.2,240.8,37.2z"/>
<path class="st46" d="M239.9,37.2c-0.2,0-0.4,0-0.6,0C239.5,37.1,239.7,37.1,239.9,37.2z"/>
<path class="st46" d="M303.9,126.7l0,9.7c0,2.2-3.8,1.6-5.2,1.6c-1.8,0-5.4,0.6-5.4-1.5l-0.1-6.4c0,0-0.1-4.3,0.2-4.7
	c0.6-1,3.1-1.2,4.8-1.2c2,0,2.8-0.1,4.5,0.5C303.4,124.8,303.9,126.7,303.9,126.7z M217.4,140.5c0,0,0.3,15.5-0.2,16.3
	c-0.8,1.3-1.6,2.2-5.4,2.2c-2.7,0-4.2-1.1-4.8-1.9c-0.6-0.9-0.5-14.5-0.5-14.5s-0.1-16.4,0-16.8c0.1-0.9,0.8-1.6,5-1.6
	c2.9,0,5.4-0.2,5.7,1.3C217.4,126.6,217.4,140.5,217.4,140.5z M260.6,126.8l0,9.7c0,2.2-3.8,1.6-5.2,1.6c-1.8,0-5.4,0.6-5.4-1.5
	l-0.1-6.4c0,0-0.1-4.3,0.2-4.7c0.6-1,3.1-1.2,4.8-1.2c2,0,2.8-0.1,4.5,0.5C260.1,124.9,260.6,126.8,260.6,126.8z M303.9,167.9
	l-0.1-18.1c0,0,0.2-1.5-0.9-2.4c-1.3-1-4.2-0.9-4.2-0.9s-4.3,0.3-4.9,1.2c-0.5,0.8-0.6,1.8-0.6,1.8l0.1,18.5l-11.6,0l0-42.8
	c0.1-5.1,6.7-9.5,8.8-9.6l9-0.2l6.2,0c6.5-0.3,9.1,6.2,9.6,8.7l0.1,43.7L303.9,167.9z M260.6,168l-0.1-18.1c0,0,0.2-1.5-0.9-2.4
	c-1.3-1-4.2-0.9-4.2-0.9s-4.3,0.3-4.9,1.2c-0.5,0.8-0.6,1.8-0.6,1.8L250,168l-11.6,0l0-42.8c0.1-5.1,6.7-9.5,8.7-9.6l9-0.2l6.2,0
	c6.5-0.3,9.1,6.2,9.6,8.7l0.1,43.7L260.6,168z M228.8,158.2c-0.1,2.8-2.4,9.9-9.3,9.9l-13.4-0.1c-10,0-10.7-8.6-10.9-12.8v-28.1
	c0-7.5,1.5-11.9,15.4-12h2.2c12.9,0,15.9,4,16.1,11.2V158.2z M185.8,168.1l-5.7,0l-5.7,0l0-21.6c0,0,0.4-20.1-0.3-21.1
	c-1-1.6-3.8-1.2-5.1-1.2c-2.5,0-5-0.4-5.5,1.3c-0.6,2-0.4,19.4-0.4,19.4l-0.1,23.2h-5.7l-5.6-0.1v-27.4v-25.3l24.9-0.1
	c3.2,0.2,5.4,2.4,7,4.4c1.6,1.9,2.2,4.1,2.2,4.1l-0.1,21.9L185.8,168.1z M332.8,61c-4.1-2.2-38.8-23-91.9-23.8
	c-115.3,0.4-166,85-166,85c25.5,12.5,52,50.1,52.3,50.7c28.5,40,68.3,102.1,119.8,103.3c16.5,0.4,27.5-9.5,40-21.6
	c45.7-44.3,52.1-126.2,110.8-137.8C397.8,116.8,376,84,332.8,61z"/>
</svg>
