<?xml version="1.0" encoding="utf-8"?>
<!-- Generator: Adobe Illustrator 17.0.0, SVG Export Plug-In . SVG Version: 6.00 Build 0)  -->
<!DOCTYPE svg PUBLIC "-//W3C//DTD SVG 1.1//EN" "http://www.w3.org/Graphics/SVG/1.1/DTD/svg11.dtd">
<svg version="1.1" id="Layer_1" xmlns="http://www.w3.org/2000/svg" xmlns:xlink="http://www.w3.org/1999/xlink" x="0px" y="0px"
	 width="405.792px" height="409.392px" viewBox="0 0 405.792 409.392" enable-background="new 0 0 405.792 409.392"
	 xml:space="preserve">
<g>
	<path fill-rule="evenodd" clip-rule="evenodd" fill="#FFFFFF" stroke="#FFFFFF" stroke-width="0.036" stroke-miterlimit="10" d="
		M358.236,127.116c-5.544,7.236-7.632,9.648-16.092,20.916c-8.46,11.232-6.228,9.468-17.28,23.148
		c-11.052,13.644-14.184,18.936-26.964,31.464c-12.816,12.528-13.32,11.124-24.228,18.684c-10.872,7.488-10.98,7.164-19.368,11.412
		c-8.388,4.248-10.692,5.184-14.148,5.508c1.476,0.36,2.988,0.684,4.5,1.044c3.276,0.072,2.124-0.252,8.964-0.684
		c6.84-0.432,11.484-1.476,18.324-1.044c6.84,0.432,6.156,0.684,9,2.772c2.844,2.052,3.096,3.456,2.412,5.544
		c0,0.108,0,0.216,0,0.324c-9.324,0-14.256,0-28.008,3.456c-13.752,3.456-11.052,2.952-26.964,10.368
		c-15.912,7.452-21.708,13.5-36.648,19.404c-14.976,5.868-13.392,3.852-23.184,4.14c-9.756,0.252-10.368-1.224-15.912-3.132
		c-5.544-1.908-5.868-2.736-6.228-4.464c-0.216,0-0.432,0-0.684,0c6.228-1.764,9.864-2.7,19.368-5.904
		c9.504-3.204,9.252-2.664,18.684-6.912c9.396-4.248,13.14-5.868,19.008-10.044c-9.792-0.576-19.62-1.152-29.376-1.728
		c-15.588-2.34-16.092-1.908-32.508-8.28c-16.416-6.408-18.252-7.272-33.192-17.28c-14.976-10.044-16.092-12.708-26.64-22.824
		c-10.548-10.116-7.848-9.36-15.552-17.64c-7.704-8.316-7.2-9.432-15.228-15.552l0,0c-8.028-6.156-15.876-9.18-15.876-9.18
		c5.004-18.936,13.104-36.612,23.76-52.452l0,0l0.252,0.252v0c8.064,4.464,15.948,10.152,24.12,17.388
		c8.136,7.272,16.272,16.02,24.408,25.704c8.136,9.72,17.46,23.544,23.976,31.896c6.48,8.316,7.632,10.692,14.724,17.64
		c7.092,6.984,17.316,17.46,27.576,23.76c10.296,6.264,23.184,12.528,33.552,13.68c10.332,1.08,18.864-1.512,28.008-7.128
		c9.108-5.652,18.756-16.164,26.208-26.316c7.452-10.188,11.736-21.924,18.108-34.128c6.372-12.276,13.5-28.26,19.908-38.7
		c6.372-10.404,11.34-17.46,18.144-23.292c4.356-3.708,10.152-6.408,15.048-8.46c2.736-1.152,4.392-2.124,7.38-2.772
		C346.752,106.92,353.016,116.712,358.236,127.116L358.236,127.116z"/>
	<path fill-rule="evenodd" clip-rule="evenodd" fill="#034694" stroke="#034694" stroke-width="0.036" stroke-miterlimit="10" d="
		M58.176,108.18c1.404-2.052,2.844-4.104,4.284-6.084c31.68-43.02,82.692-70.92,140.22-70.92c53.82,0,101.916,24.408,133.848,62.784
		c1.008,1.224,2.016,2.484,2.988,3.708c0.756,0-3.6,1.044-7.344,2.916c-3.816,1.908-8.928,3.024-15.012,8.352
		c-6.084,5.364-11.772,12.888-18.144,23.292c-6.408,10.44-13.536,26.424-19.908,38.7c-6.372,12.204-10.656,23.94-18.108,34.128
		c-7.452,10.152-17.1,20.664-26.208,26.316c-9.144,5.616-17.676,8.208-28.008,7.128c-10.368-1.152-23.256-7.416-33.552-13.68
		c-10.26-6.3-20.484-16.776-27.576-23.76c-7.092-6.948-8.244-9.324-14.724-17.64c-6.516-8.352-15.84-22.176-23.976-31.896
		c-8.136-9.684-16.272-18.432-24.408-25.704c-8.172-7.236-16.056-12.924-24.12-17.388l0,0L58.176,108.18L58.176,108.18z"/>
	<path fill-rule="evenodd" clip-rule="evenodd" fill="#FFFFFF" d="M127.08,146.988v-43.92h22.824h0c3.24,0,5.868,2.628,5.868,5.868
		l0,0v38.052h-9.576v-33.66l0,0c0-0.828-0.648-1.476-1.44-1.476l0,0h-6.624h-0.036h0c-0.792,0-1.44,0.648-1.44,1.476l0,0v33.66
		H127.08L127.08,146.988z"/>
	<path fill-rule="evenodd" clip-rule="evenodd" fill="#FFFFFF" d="M222.66,119.16v-5.832v0c0-0.828-0.648-1.476-1.476-1.476l0,0
		h-6.768l0,0c-0.828,0-1.512,0.648-1.512,1.476l0,0v5.832v0c0,0.828,0.684,1.476,1.512,1.476l0,0h6.768l0,0
		C222.012,120.636,222.66,119.988,222.66,119.16L222.66,119.16L222.66,119.16z M203.148,146.988v-38.052v0
		c0-3.24,2.7-5.868,6.012-5.868l0,0h17.388h0c3.312,0,6.012,2.628,6.012,5.868l0,0v38.052h-9.9v-16.092l0,0
		c0-0.828-0.648-1.476-1.476-1.476l0,0h-6.768l0,0c-0.828,0-1.512,0.648-1.512,1.476l0,0v16.092L203.148,146.988L203.148,146.988z"
		/>
	<path fill-rule="evenodd" clip-rule="evenodd" fill="#FFFFFF" d="M261.252,119.16v-5.832v0c0-0.828-0.684-1.476-1.512-1.476l0,0
		h-6.696l0,0c-0.828,0-1.476,0.648-1.476,1.476l0,0v5.832v0c0,0.828,0.648,1.476,1.476,1.476l0,0h6.696l0,0
		C260.568,120.636,261.252,119.988,261.252,119.16L261.252,119.16L261.252,119.16z M241.884,146.988v-38.052v0
		c0-3.24,2.664-5.868,5.94-5.868l0,0h17.136l0,0c3.312,0,5.976,2.628,5.976,5.868l0,0v38.052h-9.684v-16.092l0,0
		c0-0.828-0.684-1.476-1.512-1.476l0,0h-6.696l0,0c-0.828,0-1.476,0.648-1.476,1.476l0,0v16.092L241.884,146.988L241.884,146.988z"
		/>
	
		<polygon fill-rule="evenodd" clip-rule="evenodd" fill="#FFFFFF" stroke="#FFFFFF" stroke-width="0.036" stroke-miterlimit="10" points="
		8.244,268.812 19.944,253.224 4.86,257.976 4.32,256.248 21.888,250.704 22.5,252.684 10.8,268.272 25.92,263.484 26.46,265.212 
		8.892,270.792 8.244,268.812 	"/>
	<path fill-rule="evenodd" clip-rule="evenodd" fill="#FFFFFF" stroke="#FFFFFF" stroke-width="0.036" stroke-miterlimit="10" d="
		M2.232,243.108l16.164-11.412l0.396,1.872l-4.968,3.492l1.836,8.928l5.904,1.116l0.396,1.872L2.7,245.304L2.232,243.108
		L2.232,243.108z M12.492,237.96l-8.316,5.904l9.9,1.872L12.492,237.96L12.492,237.96z"/>
	
		<polygon fill-rule="evenodd" clip-rule="evenodd" fill="#FFFFFF" stroke="#FFFFFF" stroke-width="0.036" stroke-miterlimit="10" points="
		2.484,237.384 1.08,237.564 -0.864,222.912 0.576,222.696 1.404,229.068 17.568,226.656 17.82,228.564 1.656,231.012 
		2.484,237.384 	"/>
	
		<polygon fill-rule="evenodd" clip-rule="evenodd" fill="#FFFFFF" stroke="#FFFFFF" stroke-width="0.036" stroke-miterlimit="10" points="
		-1.224,218.232 16.632,216.468 16.776,218.52 -1.08,220.284 -1.224,218.232 	"/>
	<path fill-rule="evenodd" clip-rule="evenodd" fill="#FFFFFF" stroke="#FFFFFF" stroke-width="0.036" stroke-miterlimit="10" d="
		M0.324,213.696c-3.276-3.276-3.456-9.612-0.324-13.068c3.384-3.6,10.332-3.78,13.86-0.36c1.692,1.692,2.52,3.96,2.592,6.444
		c0.036,2.52-0.648,4.86-2.232,6.588C10.872,216.936,3.888,217.152,0.324,213.696L0.324,213.696z M1.404,212.328
		c2.88,2.736,8.928,2.556,11.664-0.288c2.664-2.772,2.556-7.812-0.252-10.44c-2.952-2.664-8.892-2.52-11.664,0.324
		C-1.548,204.696-1.368,209.736,1.404,212.328L1.404,212.328z"/>
	
		<polygon fill-rule="evenodd" clip-rule="evenodd" fill="#FFFFFF" stroke="#FFFFFF" stroke-width="0.036" stroke-miterlimit="10" points="
		-1.404,191.484 14.796,181.188 -0.54,179.928 -0.396,178.092 17.46,179.568 17.316,181.692 1.08,191.916 16.452,193.212 
		16.308,195.048 -1.548,193.572 -1.404,191.484 	"/>
	<path fill-rule="evenodd" clip-rule="evenodd" fill="#FFFFFF" stroke="#FFFFFF" stroke-width="0.036" stroke-miterlimit="10" d="
		M1.944,165.132l19.332-4.32l-0.324,1.872l-5.94,1.296l-1.548,8.964l5.148,3.276l-0.324,1.872l-16.74-10.8L1.944,165.132
		L1.944,165.132z M13.428,164.304l-9.972,2.232l8.64,5.544L13.428,164.304L13.428,164.304z"/>
	
		<polygon fill-rule="evenodd" clip-rule="evenodd" fill="#FFFFFF" stroke="#FFFFFF" stroke-width="0.036" stroke-miterlimit="10" points="
		4.824,151.128 21.204,155.52 23.94,145.944 25.416,146.34 22.176,157.716 4.32,152.928 4.824,151.128 	"/>
	<path fill-rule="evenodd" clip-rule="evenodd" fill="#FFFFFF" stroke="#FFFFFF" stroke-width="0.036" stroke-miterlimit="10" d="
		M12.636,133.812c-1.908-4.32,0.432-10.188,4.824-12.096c4.68-1.98,11.484,0.648,13.536,5.22c0.936,2.232,0.828,4.644-0.072,6.948
		c-0.972,2.376-2.556,4.212-4.788,5.148C21.492,141.048,14.652,138.42,12.636,133.812L12.636,133.812z M14.184,133.02
		c1.728,3.672,7.596,5.904,11.376,4.392c3.672-1.44,5.544-6.12,3.852-9.648c-1.764-3.672-7.56-5.904-11.34-4.428
		C14.364,124.812,12.528,129.492,14.184,133.02L14.184,133.02z"/>
	<path fill-rule="evenodd" clip-rule="evenodd" fill="#FFFFFF" stroke="#FFFFFF" stroke-width="0.036" stroke-miterlimit="10" d="
		M30.528,102.888c-0.252,0.504-0.54,1.044-0.828,1.584c-2.196-0.792-4.464,0.144-5.94,2.16c-1.332,1.764-1.908,4.104-1.332,6.192
		c0.684,2.232,2.772,3.744,4.68,4.788c4.248,2.232,9.36,1.908,11.232-3.672c0.936-2.628-0.144-5.076-2.232-6.372
		c0.252-0.504,0.54-1.044,0.828-1.584c2.772,1.692,4.14,4.932,2.88,8.388c-2.448,6.624-8.172,7.704-13.536,4.896
		c-2.628-1.332-5.112-3.492-5.616-6.66c-0.324-2.448,0.468-5.04,1.944-7.056C24.552,102.888,27.756,101.556,30.528,102.888
		L30.528,102.888z"/>
	
		<polygon fill-rule="evenodd" clip-rule="evenodd" fill="#FFFFFF" stroke="#FFFFFF" stroke-width="0.036" stroke-miterlimit="10" points="
		35.712,85.428 36.972,86.256 30.78,95.94 36.396,99.648 42.048,90.828 43.272,91.656 37.656,100.476 43.704,104.472 50.076,94.536 
		51.372,95.4 44.028,106.884 28.512,96.66 35.712,85.428 	"/>
	<path fill-rule="evenodd" clip-rule="evenodd" fill="#FFFFFF" stroke="#FFFFFF" stroke-width="0.036" stroke-miterlimit="10" d="
		M43.38,75.384l19.044,5.652l-1.152,1.584l-5.868-1.764l-5.472,7.452l3.024,5.58l-1.152,1.584L42.012,77.22L43.38,75.384
		L43.38,75.384z M53.892,80.388l-9.828-2.916l5.04,9.396L53.892,80.388L53.892,80.388z"/>
	
		<polygon fill-rule="evenodd" clip-rule="evenodd" fill="#FFFFFF" stroke="#FFFFFF" stroke-width="0.036" stroke-miterlimit="10" points="
		51.696,65.88 70.416,68.472 59.256,57.996 60.48,56.736 73.476,68.976 72.108,70.416 53.352,67.788 64.548,78.3 63.324,79.56 
		50.328,67.32 51.696,65.88 	"/>
	
		<polygon fill-rule="evenodd" clip-rule="evenodd" fill="#FFFFFF" stroke="#FFFFFF" stroke-width="0.036" stroke-miterlimit="10" points="
		65.124,52.92 77.292,66.204 75.96,67.464 63.792,54.18 65.124,52.92 	"/>
	<path fill-rule="evenodd" clip-rule="evenodd" fill="#FFFFFF" stroke="#FFFFFF" stroke-width="0.036" stroke-miterlimit="10" d="
		M84.996,42.732c-0.468,0.36-0.936,0.756-1.44,1.152c-1.728-1.656-4.284-1.692-6.516-0.396c-1.98,1.116-3.492,3.096-3.816,5.256
		c-0.252,2.376,1.08,4.608,2.484,6.372c3.06,3.78,8.028,5.544,12.096,1.08c1.98-2.088,1.944-4.824,0.504-6.84
		c0.468-0.396,0.972-0.792,1.476-1.188c1.908,2.736,1.836,6.3-0.792,9c-5.04,5.256-10.872,3.96-14.796-0.828
		c-1.908-2.34-3.384-5.328-2.52-8.532c0.684-2.412,2.52-4.5,4.752-5.796C79.344,40.284,82.944,40.356,84.996,42.732L84.996,42.732z"
		/>
	<path fill-rule="evenodd" clip-rule="evenodd" fill="#FFFFFF" stroke="#FFFFFF" stroke-width="0.036" stroke-miterlimit="10" d="
		M98.208,28.368l16.416,11.916l-1.62,0.972l-5.04-3.672l-7.848,4.788l1.008,6.12l-1.62,1.008L96.3,29.52L98.208,28.368
		L98.208,28.368z M106.632,36.612l-8.46-6.12l1.692,10.26L106.632,36.612L106.632,36.612z"/>
	
		<polygon fill-rule="evenodd" clip-rule="evenodd" fill="#FFFFFF" stroke="#FFFFFF" stroke-width="0.036" stroke-miterlimit="10" points="
		109.584,21.996 126.756,31.248 119.772,17.064 121.392,16.272 129.528,32.832 127.656,33.732 110.484,24.444 117.468,38.664 
		115.812,39.456 107.712,22.896 109.584,21.996 	"/>
	<path fill-rule="evenodd" clip-rule="evenodd" fill="#FFFFFF" stroke="#FFFFFF" stroke-width="0.036" stroke-miterlimit="10" d="
		M160.92,4.5l11.808,16.056l-1.908,0.396l-3.6-4.932l-9.144,1.908l-1.044,5.904l-1.908,0.396l3.564-19.26L160.92,4.5L160.92,4.5z
		 M166.284,14.688l-6.12-8.244l-1.8,9.9L166.284,14.688L166.284,14.688z"/>
	
		<polygon fill-rule="evenodd" clip-rule="evenodd" fill="#FFFFFF" stroke="#FFFFFF" stroke-width="0.036" stroke-miterlimit="10" points="
		170.496,3.96 170.316,2.52 184.644,0.684 184.824,2.124 178.596,2.916 180.828,19.152 178.956,19.404 176.724,3.168 170.496,3.96 	
		"/>
	
		<polygon fill-rule="evenodd" clip-rule="evenodd" fill="#FFFFFF" stroke="#FFFFFF" stroke-width="0.036" stroke-miterlimit="10" points="
		190.8,0.54 197.748,15.948 203.508,0.108 205.992,0 206.64,17.748 204.912,17.82 204.372,2.304 198.648,18.036 196.992,18.072 
		190.116,2.808 190.656,18.324 188.892,18.36 188.28,0.612 190.8,0.54 	"/>
	<path fill-rule="evenodd" clip-rule="evenodd" fill="#FFFFFF" stroke="#FFFFFF" stroke-width="0.036" stroke-miterlimit="10" d="
		M213.372,2.664c3.672-2.952,10.116-2.484,13.248,0.972c3.312,3.708,2.736,10.692-1.152,13.86c-1.872,1.476-4.284,2.088-6.804,1.872
		c-2.592-0.18-4.86-1.116-6.444-2.88C208.908,12.816,209.484,5.832,213.372,2.664L213.372,2.664z M214.596,3.852
		c-3.06,2.628-3.528,8.604-0.936,11.628c2.484,2.952,7.596,3.348,10.584,0.792c3.024-2.664,3.528-8.568,0.936-11.628
		C222.696,1.692,217.548,1.368,214.596,3.852L214.596,3.852z"/>
	<path fill-rule="evenodd" clip-rule="evenodd" fill="#FFFFFF" stroke="#FFFFFF" stroke-width="0.036" stroke-miterlimit="10" d="
		M240.192,13.932c-2.016-0.864-4.644-1.656-5.76-3.564c-1.152-2.016-0.396-4.716,1.584-5.976c2.556-1.584,6.624-0.936,9.072,0.828
		c1.728,1.26,2.196,3.276,1.872,5.184c-0.576-0.108-1.188-0.216-1.8-0.36c0.18-1.368-0.144-2.844-1.404-3.78
		c-1.656-1.152-4.608-1.728-6.408-0.792c-1.368,0.792-2.088,2.7-1.332,4.068c0.936,1.512,3.492,2.196,5.004,2.916
		c1.908,0.9,4.068,1.872,4.86,3.852c0.792,2.124-0.36,4.86-2.484,5.904c-2.88,1.332-7.308,0.468-9.72-1.44
		c-1.764-1.512-2.016-3.348-1.692-5.364c0.576,0.108,1.188,0.216,1.8,0.324c-0.216,1.62,0.144,3.168,1.656,4.248
		c1.692,1.224,4.392,1.764,6.408,1.116c1.8-0.576,2.7-2.412,2.268-4.104C243.72,15.372,241.704,14.58,240.192,13.932L240.192,13.932
		z"/>
	<path fill-rule="evenodd" clip-rule="evenodd" fill="#FFFFFF" stroke="#FFFFFF" stroke-width="0.036" stroke-miterlimit="10" d="
		M260.244,8.208c3.564,1.008,5.976,3.096,4.896,6.804c-1.224,4.068-4.824,4.104-8.604,3.024c-1.368-0.396-2.736-0.792-4.104-1.188
		c-0.72,2.556-1.44,5.148-2.196,7.74c-0.576-0.18-1.152-0.36-1.764-0.54c1.656-5.904,3.348-11.844,5.04-17.784
		C255.744,6.912,257.976,7.56,260.244,8.208L260.244,8.208z M259.74,9.612c-1.62-0.468-3.24-0.936-4.86-1.404
		c-0.648,2.376-1.332,4.752-2.016,7.128c1.368,0.396,2.736,0.792,4.14,1.188c2.772,0.828,5.4,1.08,6.336-2.052
		C264.096,11.664,262.332,10.404,259.74,9.612L259.74,9.612z"/>
	
		<polygon fill-rule="evenodd" clip-rule="evenodd" fill="#FFFFFF" stroke="#FFFFFF" stroke-width="0.036" stroke-miterlimit="10" points="
		271.62,12.456 268.776,19.98 279.468,24.12 282.348,16.596 284.076,17.28 277.488,34.632 275.724,33.948 278.928,25.524 
		268.236,21.384 265.032,29.808 263.304,29.124 269.892,11.772 271.62,12.456 	"/>
	
		<polygon fill-rule="evenodd" clip-rule="evenodd" fill="#FFFFFF" stroke="#FFFFFF" stroke-width="0.036" stroke-miterlimit="10" points="
		299.268,24.12 298.62,25.452 288.36,20.484 285.408,26.532 294.732,31.068 294.084,32.364 284.76,27.864 281.556,34.344 
		292.104,39.456 291.42,40.824 279.216,34.92 287.388,18.36 299.268,24.12 	"/>
	<path fill-rule="evenodd" clip-rule="evenodd" fill="#FFFFFF" stroke="#FFFFFF" stroke-width="0.036" stroke-miterlimit="10" d="
		M307.728,29.592c1.44,0.936,3.168,1.872,4.176,3.312c0.9,1.296,1.116,2.88,0.612,4.284c-0.828,2.412-2.844,3.852-5.472,3.24
		c1.476,1.944,0.792,3.312-0.036,5.112c-0.396,0.864-0.792,1.728-1.224,2.592c-0.288,0.576-0.504,1.188-0.324,1.836
		c-0.036,0.072-0.072,0.144-0.108,0.216c-0.576-0.36-1.152-0.72-1.728-1.08c0.072-1.62,1.584-3.816,2.196-5.364
		c0.9-2.232-0.108-3.204-2.052-4.428c-1.656-1.008-3.312-2.052-4.968-3.096c-1.368,2.412-2.772,4.824-4.176,7.272
		c-0.504-0.324-1.044-0.648-1.584-0.972c3.132-5.4,6.264-10.8,9.396-16.2C304.2,27.396,305.964,28.476,307.728,29.592
		L307.728,29.592z M306.972,30.96c-1.224-0.792-2.484-1.584-3.744-2.376c-1.188,2.088-2.412,4.176-3.636,6.3
		c1.476,0.936,2.988,1.872,4.5,2.808c2.412,1.512,4.86,2.304,6.372-0.468C312.156,34.056,309.456,32.508,306.972,30.96
		L306.972,30.96z"/>
	
		<polygon fill-rule="evenodd" clip-rule="evenodd" fill="#FFFFFF" stroke="#FFFFFF" stroke-width="0.036" stroke-miterlimit="10" points="
		321.408,39.132 310.824,53.964 309.276,52.92 319.896,38.052 321.408,39.132 	"/>
	<path fill-rule="evenodd" clip-rule="evenodd" fill="#FFFFFF" stroke="#FFFFFF" stroke-width="0.036" stroke-miterlimit="10" d="
		M334.188,55.08c-0.468-0.36-0.972-0.72-1.476-1.116c1.26-2.016,0.756-4.392-1.008-6.228c-1.548-1.62-3.852-2.628-6.084-2.448
		c-2.448,0.252-4.392,1.98-5.832,3.636c-3.132,3.708-3.78,8.748,1.548,11.664c2.52,1.368,5.22,0.792,6.948-1.008
		c0.468,0.36,0.972,0.72,1.476,1.116c-2.268,2.412-5.868,3.096-9.144,1.224c-6.336-3.636-6.3-9.432-2.376-14.112
		c1.908-2.304,4.608-4.32,7.956-4.176c2.556,0.108,5.04,1.404,6.84,3.204C335.376,49.248,336.096,52.632,334.188,55.08
		L334.188,55.08z"/>
	<path fill-rule="evenodd" clip-rule="evenodd" fill="#FFFFFF" stroke="#FFFFFF" stroke-width="0.036" stroke-miterlimit="10" d="
		M350.46,64.548l-7.56,18.144l-1.26-1.368l2.34-5.58l-5.904-6.408l-5.4,2.268l-1.224-1.368l17.568-7.272L350.46,64.548
		L350.46,64.548z M344.628,74.304l3.888-9.36l-9.036,3.78L344.628,74.304L344.628,74.304z"/>
	
		<polygon fill-rule="evenodd" clip-rule="evenodd" fill="#FFFFFF" stroke="#FFFFFF" stroke-width="0.036" stroke-miterlimit="10" points="
		372.492,92.16 362.124,106.56 379.512,103.428 380.916,105.624 365.076,115.524 364.14,114.012 377.964,105.372 360.684,108.468 
		359.748,106.992 370.08,92.7 356.256,101.376 355.284,99.828 371.088,89.928 372.492,92.16 	"/>
	
		<polygon fill-rule="evenodd" clip-rule="evenodd" fill="#FFFFFF" stroke="#FFFFFF" stroke-width="0.036" stroke-miterlimit="10" points="
		394.704,137.412 377.388,143.892 376.74,142.056 394.056,135.576 394.704,137.412 	"/>
	
		<polygon fill-rule="evenodd" clip-rule="evenodd" fill="#FFFFFF" stroke="#FFFFFF" stroke-width="0.036" stroke-miterlimit="10" points="
		386.928,118.08 377.028,134.928 391.572,128.484 392.292,130.14 375.336,137.664 374.508,135.756 384.444,118.944 369.9,125.424 
		369.144,123.732 386.1,116.208 386.928,118.08 	"/>
	<path fill-rule="evenodd" clip-rule="evenodd" fill="#FFFFFF" stroke="#FFFFFF" stroke-width="0.036" stroke-miterlimit="10" d="
		M388.764,151.56c-0.18-2.196-0.612-4.896,0.612-6.732c1.26-1.98,4.068-2.52,6.048-1.368c2.628,1.548,3.852,5.472,3.348,8.424
		c-0.324,2.124-1.944,3.456-3.78,4.068c-0.144-0.576-0.324-1.152-0.504-1.764c1.332-0.504,2.52-1.44,2.772-3.024
		c0.288-1.98-0.504-4.824-2.16-6.012c-1.332-0.864-3.384-0.648-4.284,0.684c-0.936,1.512-0.396,4.104-0.36,5.76
		c0.036,2.124,0.144,4.5-1.296,6.084c-1.548,1.656-4.536,1.908-6.408,0.468c-2.52-1.908-3.744-6.228-3.096-9.252
		c0.54-2.268,2.088-3.312,4.068-3.924c0.144,0.576,0.324,1.152,0.504,1.728c-1.548,0.54-2.808,1.584-3.06,3.42
		c-0.36,2.052,0.396,4.68,1.872,6.192c1.332,1.332,3.42,1.26,4.716,0.108C389.052,155.34,388.836,153.18,388.764,151.56
		L388.764,151.56z"/>
	
		<polygon fill-rule="evenodd" clip-rule="evenodd" fill="#FFFFFF" stroke="#FFFFFF" stroke-width="0.036" stroke-miterlimit="10" points="
		398.196,155.952 399.636,155.628 402.696,169.488 401.256,169.812 399.924,163.8 383.688,167.436 383.292,165.6 399.528,161.964 
		398.196,155.952 	"/>
	<path fill-rule="evenodd" clip-rule="evenodd" fill="#FFFFFF" stroke="#FFFFFF" stroke-width="0.036" stroke-miterlimit="10" d="
		M404.064,178.596c0.252,1.8,0.612,3.744,0.144,5.472c-0.432,1.548-1.476,2.736-2.808,3.168c-2.34,0.864-4.644,0.108-5.832-2.412
		c-0.504,2.412-1.98,2.7-3.852,3.132c-0.9,0.216-1.8,0.432-2.7,0.648c-0.576,0.144-1.152,0.324-1.548,0.864
		c-0.072,0-0.144,0-0.252,0.036c-0.072-0.684-0.144-1.368-0.252-2.052c1.296-0.936,3.852-1.116,5.4-1.584
		c2.196-0.648,2.304-2.088,2.016-4.428c-0.252-1.98-0.504-3.96-0.756-5.94c-2.664,0.36-5.328,0.72-8.028,1.08
		c-0.072-0.612-0.144-1.224-0.216-1.872c5.94-0.828,11.916-1.656,17.892-2.484C403.524,174.348,403.776,176.472,404.064,178.596
		L404.064,178.596z M402.624,178.848c-0.18-1.512-0.36-3.024-0.576-4.536c-2.304,0.324-4.608,0.648-6.948,0.972
		c0.216,1.8,0.432,3.6,0.684,5.436c0.36,2.88,1.296,5.4,4.284,4.896C403.488,185.004,403.02,181.836,402.624,178.848
		L402.624,178.848z"/>
	<path fill-rule="evenodd" clip-rule="evenodd" fill="#FFFFFF" stroke="#FFFFFF" stroke-width="0.036" stroke-miterlimit="10" d="
		M405.792,200.34l-17.748,7.848l-0.072-1.764l5.472-2.412l-0.324-8.604l-5.616-2.016l-0.072-1.8l18.288,6.66L405.792,200.34
		L405.792,200.34z M394.884,203.4l9.144-4.068l-9.396-3.42L394.884,203.4L394.884,203.4z"/>
	
		<polygon fill-rule="evenodd" clip-rule="evenodd" fill="#FFFFFF" stroke="#FFFFFF" stroke-width="0.036" stroke-miterlimit="10" points="
		404.316,207.504 405.792,207.54 405.18,222.048 403.704,221.976 403.992,215.676 387.432,214.92 387.54,213.048 404.064,213.768 
		404.316,207.504 	"/>
	
		<polygon fill-rule="evenodd" clip-rule="evenodd" fill="#FFFFFF" stroke="#FFFFFF" stroke-width="0.036" stroke-miterlimit="10" points="
		404.208,228.6 386.424,226.656 386.604,224.784 404.388,226.728 404.208,228.6 	"/>
	<path fill-rule="evenodd" clip-rule="evenodd" fill="#FFFFFF" stroke="#FFFFFF" stroke-width="0.036" stroke-miterlimit="10" d="
		M400.932,236.628c2.592,4.032,1.476,10.476-2.34,13.248c-4.068,2.916-11.052,1.584-13.86-2.7c-1.332-2.052-1.692-4.536-1.224-7.056
		c0.432-2.592,1.62-4.788,3.564-6.192C391.104,231.012,398.124,232.344,400.932,236.628L400.932,236.628z M399.564,237.744
		c-2.304-3.384-8.316-4.536-11.628-2.268c-3.204,2.196-4.14,7.344-1.872,10.584c2.376,3.384,8.316,4.536,11.664,2.268
		C400.968,246.132,401.796,241.02,399.564,237.744L399.564,237.744z"/>
	
		<polygon fill-rule="evenodd" clip-rule="evenodd" fill="#FFFFFF" stroke="#FFFFFF" stroke-width="0.036" stroke-miterlimit="10" points="
		397.908,260.352 379.404,266.688 394.596,271.44 394.056,273.204 376.38,267.696 376.992,265.644 395.496,259.344 380.304,254.592 
		380.844,252.792 398.52,258.336 397.908,260.352 	"/>
	
		<polygon fill-rule="evenodd" clip-rule="evenodd" fill="#FFFFFF" stroke="#FFFFFF" stroke-width="0.036" stroke-miterlimit="10" points="
		383.292,111.348 366.876,120.348 366.012,118.62 382.428,109.656 383.292,111.348 	"/>
	<path fill-rule="evenodd" clip-rule="evenodd" fill="#FFFFFF" stroke="#FFFFFF" stroke-width="0.036" stroke-miterlimit="10" d="
		M24.984,291.132c-1.152,0.612-2.412,1.26-3.024,2.484c-0.828,1.62-0.36,3.564,0.504,5.184c0.864,1.62,2.232,3.096,4.104,3.384
		c1.368,0.216,2.664-0.396,3.816-1.008c3.456-1.728,6.948-3.492,10.44-5.256c0.288,0.54,0.576,1.08,0.864,1.62
		c-3.528,1.764-7.056,3.564-10.62,5.364c-1.548,0.756-3.168,1.368-4.932,0.936c-2.268-0.468-3.96-2.376-5.004-4.356
		c-2.412-4.5-1.332-7.776,2.808-9.864c3.528-1.764,7.056-3.564,10.62-5.364c0.288,0.54,0.576,1.08,0.864,1.62
		C31.968,287.604,28.476,289.368,24.984,291.132L24.984,291.132z"/>
	<path fill-rule="evenodd" clip-rule="evenodd" fill="#FFFFFF" stroke="#FFFFFF" stroke-width="0.036" stroke-miterlimit="10" d="
		M41.04,314.784c-0.792-2.088-2.052-4.608-1.44-6.804c0.612-2.304,3.096-3.708,5.328-3.204c2.952,0.72,5.292,4.176,5.688,7.236
		c0.324,2.16-0.792,3.96-2.376,5.112c-0.324-0.504-0.648-1.008-1.008-1.548c1.116-0.9,1.944-2.16,1.728-3.816
		c-0.288-2.016-1.944-4.572-3.852-5.184c-1.512-0.432-3.384,0.396-3.816,1.98c-0.468,1.764,0.828,4.104,1.368,5.724
		c0.684,2.088,1.476,4.356,0.576,6.336c-0.936,2.124-3.708,3.312-5.904,2.484c-2.952-1.116-5.4-4.968-5.688-8.1
		c-0.144-2.412,1.008-3.924,2.664-5.148c0.324,0.504,0.648,1.008,1.008,1.548c-1.296,1.044-2.16,2.448-1.908,4.32
		c0.324,2.088,1.8,4.464,3.636,5.472c1.656,0.9,3.6,0.18,4.5-1.332C42.444,318.384,41.616,316.332,41.04,314.784L41.04,314.784z"/>
	
		<polygon fill-rule="evenodd" clip-rule="evenodd" fill="#FFFFFF" stroke="#FFFFFF" stroke-width="0.036" stroke-miterlimit="10" points="
		42.696,328.464 40.716,329.904 38.88,327.564 40.896,326.088 42.696,328.464 	"/>
	<path fill-rule="evenodd" clip-rule="evenodd" fill="#FFFFFF" stroke="#FFFFFF" stroke-width="0.036" stroke-miterlimit="10" d="
		M103.932,362.232l-3.6,19.872l-1.62-1.008l1.116-6.12l-7.812-4.896l-5.148,3.6l-1.62-1.044l16.776-11.592L103.932,362.232
		L103.932,362.232z M100.116,373.392l1.872-10.26l-8.64,5.976L100.116,373.392L100.116,373.392z"/>
	<path fill-rule="evenodd" clip-rule="evenodd" fill="#FFFFFF" stroke="#FFFFFF" stroke-width="0.036" stroke-miterlimit="10" d="
		M117.18,370.512c1.512,0.792,3.276,1.584,4.356,2.952c0.972,1.224,1.296,2.808,0.9,4.212c-0.648,2.484-2.556,4.032-5.184,3.636
		c1.584,1.8,1.008,3.204,0.288,5.076c-0.324,0.864-0.684,1.764-1.044,2.664c-0.216,0.576-0.396,1.188-0.18,1.8
		c-0.036,0.072-0.072,0.144-0.108,0.252c-0.576-0.288-1.152-0.612-1.764-0.936c-0.036-1.62,1.296-3.924,1.8-5.508
		c0.756-2.268-0.324-3.168-2.304-4.248c-1.692-0.9-3.384-1.8-5.112-2.7c-1.188,2.484-2.412,5.004-3.636,7.524
		c-0.54-0.288-1.08-0.576-1.62-0.864c2.7-5.58,5.436-11.16,8.172-16.776C113.544,368.568,115.344,369.54,117.18,370.512
		L117.18,370.512z M116.568,371.88c-1.296-0.684-2.592-1.368-3.888-2.052c-1.044,2.16-2.088,4.32-3.168,6.48
		c1.548,0.828,3.096,1.656,4.644,2.484c2.484,1.332,4.968,1.944,6.228-0.936C121.86,374.616,119.124,373.248,116.568,371.88
		L116.568,371.88z"/>
	
		<polygon fill-rule="evenodd" clip-rule="evenodd" fill="#FFFFFF" stroke="#FFFFFF" stroke-width="0.036" stroke-miterlimit="10" points="
		125.568,375.912 126.144,374.508 139.896,379.872 139.32,381.276 133.344,378.936 126.792,394.596 124.992,393.876 
		131.544,378.216 125.568,375.912 	"/>
	
		<polygon fill-rule="evenodd" clip-rule="evenodd" fill="#FFFFFF" stroke="#FFFFFF" stroke-width="0.036" stroke-miterlimit="10" points="
		145.08,382.14 146.988,399.348 157.752,385.704 160.272,386.424 155.16,403.92 153.432,403.416 157.932,388.116 147.204,401.652 
		145.548,401.22 143.676,384.12 139.176,399.42 137.448,398.916 142.56,381.42 145.08,382.14 	"/>
	
		<polygon fill-rule="evenodd" clip-rule="evenodd" fill="#FFFFFF" stroke="#FFFFFF" stroke-width="0.036" stroke-miterlimit="10" points="
		176.544,389.592 176.292,391.068 165.276,389.088 164.16,395.676 174.168,397.44 173.916,398.88 163.908,397.116 162.648,404.208 
		173.952,406.224 173.7,407.7 160.632,405.396 163.764,387.324 176.544,389.592 	"/>
	
		<polygon fill-rule="evenodd" clip-rule="evenodd" fill="#FFFFFF" stroke="#FFFFFF" stroke-width="0.036" stroke-miterlimit="10" points="
		182.52,390.564 192.816,406.764 194.076,391.428 195.912,391.572 194.436,409.464 192.312,409.284 182.088,393.084 180.792,408.42 
		178.956,408.312 180.432,390.42 182.52,390.564 	"/>
	
		<polygon fill-rule="evenodd" clip-rule="evenodd" fill="#FFFFFF" stroke="#FFFFFF" stroke-width="0.036" stroke-miterlimit="10" points="
		201.096,393.264 201.06,391.824 214.524,391.464 214.56,392.904 208.728,393.084 209.124,409.392 207.36,409.428 206.964,393.12 
		201.096,393.264 	"/>
	<path fill-rule="evenodd" clip-rule="evenodd" fill="#FFFFFF" stroke="#FFFFFF" stroke-width="0.036" stroke-miterlimit="10" d="
		M227.268,392.04c2.772-3.852,9.108-4.896,13.032-2.16c4.14,2.916,5.328,10.044,2.412,14.148c-1.44,1.98-3.636,3.132-6.12,3.528
		c-2.52,0.432-4.968,0.036-6.948-1.368C225.54,403.272,224.28,396.144,227.268,392.04L227.268,392.04z M228.744,392.94
		c-2.304,3.348-1.224,9.468,2.016,11.916c3.168,2.34,8.208,1.512,10.44-1.728c2.268-3.42,1.26-9.468-2.016-11.916
		C236.016,388.836,230.976,389.736,228.744,392.94L228.744,392.94z"/>
	
		<polygon fill-rule="evenodd" clip-rule="evenodd" fill="#FFFFFF" stroke="#FFFFFF" stroke-width="0.036" stroke-miterlimit="10" points="
		255.312,384.192 255.672,385.596 245.088,388.224 246.78,394.524 256.392,392.112 256.752,393.516 247.176,395.928 
		249.372,404.136 247.572,404.604 242.928,387.288 255.312,384.192 	"/>
	<path fill-rule="evenodd" clip-rule="evenodd" fill="#FFFFFF" stroke="#FFFFFF" stroke-width="0.036" stroke-miterlimit="10" d="
		M279.18,381.024c-0.576,0.216-1.152,0.432-1.728,0.648c-1.152-2.052-3.564-2.808-6.084-2.304c-2.232,0.468-4.284,1.836-5.292,3.744
		c-1.008,2.124-0.432,4.608,0.36,6.624c1.692,4.428,5.868,7.488,11.16,4.572c2.52-1.332,3.384-3.852,2.628-6.192
		c0.576-0.216,1.152-0.432,1.764-0.648c0.972,3.096-0.216,6.372-3.564,8.1c-6.444,3.348-11.592,0.432-13.824-5.148
		c-1.08-2.7-1.512-5.904,0.324-8.604c1.368-2.052,3.78-3.42,6.3-3.96C274.572,377.136,277.956,378.252,279.18,381.024
		L279.18,381.024z"/>
	<path fill-rule="evenodd" clip-rule="evenodd" fill="#FFFFFF" stroke="#FFFFFF" stroke-width="0.036" stroke-miterlimit="10" d="
		M282.708,376.164c1.476-4.644,7.056-7.596,11.52-6.12c4.68,1.62,7.92,8.244,6.408,13.176c-0.756,2.376-2.412,4.176-4.608,5.328
		c-2.232,1.188-4.644,1.548-6.876,0.792C284.436,387.756,281.196,381.096,282.708,376.164L282.708,376.164z M284.4,376.596
		c-1.188,3.996,1.656,9.684,5.4,11.088c3.636,1.332,8.064-1.044,9.18-4.896c1.116-4.032-1.656-9.684-5.4-11.088
		C289.908,370.332,285.48,372.744,284.4,376.596L284.4,376.596z"/>
	
		<polygon fill-rule="evenodd" clip-rule="evenodd" fill="#FFFFFF" stroke="#FFFFFF" stroke-width="0.036" stroke-miterlimit="10" points="
		300.06,364.212 314.64,374.112 311.076,356.94 313.272,355.5 323.496,370.944 322.02,371.916 313.056,358.416 316.584,375.516 
		315.144,376.452 300.708,366.588 309.636,380.088 308.16,381.096 297.9,365.616 300.06,364.212 	"/>
	
		<polygon fill-rule="evenodd" clip-rule="evenodd" fill="#FFFFFF" stroke="#FFFFFF" stroke-width="0.036" stroke-miterlimit="10" points="
		317.196,352.26 332.964,360.576 327.42,343.692 329.436,342 341.496,356.364 340.092,357.516 329.58,344.988 335.052,361.728 
		333.756,362.844 318.096,354.6 328.644,367.128 327.24,368.316 315.18,353.952 317.196,352.26 	"/>
	
		<polygon fill-rule="evenodd" clip-rule="evenodd" fill="#FFFFFF" stroke="#FFFFFF" stroke-width="0.036" stroke-miterlimit="10" points="
		341.28,330.948 342.324,331.92 334.728,339.66 339.372,344.052 346.284,337.032 347.292,338.004 340.416,345.024 345.42,349.812 
		353.196,341.856 354.276,342.864 345.24,352.044 332.46,339.912 341.28,330.948 	"/>
	<path fill-rule="evenodd" clip-rule="evenodd" fill="#FFFFFF" stroke="#FFFFFF" stroke-width="0.036" stroke-miterlimit="10" d="
		M346.788,323.496c1.116-1.368,2.232-2.952,3.78-3.78c1.368-0.72,2.952-0.684,4.212-0.036c2.268,1.188,3.348,3.384,2.412,5.94
		c2.052-1.224,3.276-0.36,4.932,0.756c0.756,0.504,1.512,1.044,2.304,1.584c0.54,0.324,1.08,0.612,1.728,0.54
		c0.072,0.036,0.144,0.072,0.216,0.144c-0.432,0.504-0.864,1.044-1.296,1.584c-1.548-0.324-3.492-2.088-4.896-2.916
		c-2.016-1.224-3.096-0.324-4.572,1.44c-1.224,1.512-2.448,3.024-3.672,4.536c2.124,1.728,4.284,3.456,6.444,5.22
		c-0.396,0.468-0.792,0.936-1.188,1.44c-4.788-3.852-9.576-7.704-14.364-11.592C344.124,326.736,345.456,325.116,346.788,323.496
		L346.788,323.496z M347.976,324.396c-0.936,1.152-1.872,2.304-2.808,3.456c1.836,1.476,3.708,2.988,5.58,4.5
		c1.116-1.368,2.232-2.736,3.348-4.14c1.8-2.232,2.916-4.572,0.468-6.444C351.72,319.644,349.848,322.128,347.976,324.396
		L347.976,324.396z"/>
	<path fill-rule="evenodd" clip-rule="evenodd" fill="#FFFFFF" stroke="#FFFFFF" stroke-width="0.036" stroke-miterlimit="10" d="
		M366.912,304.416c-0.324,0.468-0.648,0.972-1.008,1.476c-2.124-1.008-4.5-0.324-6.192,1.512c-1.512,1.62-2.34,3.924-1.98,6.048
		c0.468,2.304,2.376,3.996,4.212,5.22c3.96,2.664,9.108,2.88,11.592-2.484c1.188-2.52,0.36-5.076-1.584-6.552
		c0.324-0.504,0.648-1.008,1.008-1.512c2.592,1.98,3.6,5.328,1.98,8.64c-3.132,6.372-8.964,6.84-14.04,3.492
		c-2.484-1.62-4.716-3.996-4.896-7.236c-0.072-2.448,1.008-4.932,2.7-6.804C360.9,303.768,364.284,302.796,366.912,304.416
		L366.912,304.416z"/>
	
		<polygon fill-rule="evenodd" clip-rule="evenodd" fill="#FFFFFF" stroke="#FFFFFF" stroke-width="0.036" stroke-miterlimit="10" points="
		370.26,287.352 371.628,288.072 366.192,298.152 372.24,301.32 377.208,292.14 378.54,292.824 373.572,302.004 380.124,305.424 
		385.74,295.056 387.144,295.812 380.628,307.8 363.96,299.052 370.26,287.352 	"/>
	
		<polygon fill-rule="evenodd" clip-rule="evenodd" fill="#FFFFFF" stroke="#FFFFFF" stroke-width="0.036" stroke-miterlimit="10" points="
		29.916,308.952 27.9,310.212 26.46,307.656 28.476,306.396 29.916,308.952 	"/>
	<path fill-rule="evenodd" clip-rule="evenodd" fill="#FFFFFF" stroke="#FFFFFF" stroke-width="0.036" stroke-miterlimit="10" d="
		M131.4,32.184c-2.124-5.688-4.248-11.376-6.408-17.1c1.476-0.54,2.952-1.08,4.428-1.656c2.196-0.792,4.572-1.944,6.984-1.584
		c3.348,0.576,5.364,3.528,6.372,6.3c1.08,2.88,1.62,6.732-0.936,9.288c-1.404,1.404-3.456,2.16-5.328,2.844
		C134.82,30.888,133.128,31.536,131.4,32.184L131.4,32.184z M130.392,14.832c-0.972,0.36-1.944,0.72-2.952,1.116
		c1.764,4.716,3.528,9.432,5.292,14.148c0.9-0.324,1.8-0.648,2.7-1.008c1.8-0.684,3.96-1.224,5.256-2.664
		c1.944-2.16,1.224-5.256,0.396-7.488c-0.864-2.232-2.304-4.896-5.004-5.364C134.136,13.248,132.192,14.184,130.392,14.832
		L130.392,14.832z"/>
	<path fill-rule="evenodd" clip-rule="evenodd" fill="#FFFFFF" stroke="#FFFFFF" stroke-width="0.036" stroke-miterlimit="10" d="
		M343.548,83.844c4.86-3.96,9.72-7.92,14.616-11.916c1.008,1.296,2.016,2.592,3.024,3.888c1.476,1.908,3.348,3.924,3.744,6.444
		c0.504,3.492-1.728,6.444-4.104,8.352c-2.484,2.016-6.048,3.816-9.36,2.088c-1.8-0.972-3.168-2.736-4.428-4.356
		C345.888,86.868,344.736,85.356,343.548,83.844L343.548,83.844z M360.18,77.004c-0.684-0.864-1.368-1.728-2.052-2.628
		c-4.032,3.312-8.1,6.66-12.168,10.008c0.612,0.792,1.224,1.584,1.836,2.412c1.26,1.62,2.484,3.6,4.32,4.428
		c2.7,1.26,5.508-0.468,7.452-2.052c1.908-1.62,4.068-3.924,3.636-6.84C362.916,80.28,361.368,78.624,360.18,77.004L360.18,77.004z"
		/>
	
		<polygon fill-rule="evenodd" clip-rule="evenodd" fill="#FFFFFF" stroke="#FFFFFF" stroke-width="0.036" stroke-miterlimit="10" points="
		83.16,347.256 82.152,348.372 73.728,340.848 69.228,345.78 76.932,352.62 75.924,353.7 68.256,346.86 63.396,352.188 
		72.072,359.928 71.064,361.044 61.02,352.116 73.368,338.544 83.16,347.256 	"/>
	<path fill-rule="evenodd" clip-rule="evenodd" fill="#FFFFFF" stroke="#FFFFFF" stroke-width="0.036" stroke-miterlimit="10" d="
		M91.476,353.268c3.132,2.304,4.716,5.184,2.268,8.316c-2.772,3.42-6.336,2.124-9.648-0.288c-1.188-0.864-2.412-1.764-3.636-2.664
		c-1.692,2.16-3.384,4.356-5.076,6.552c-0.504-0.36-1.044-0.72-1.584-1.116c3.888-5.04,7.812-10.08,11.736-15.156
		C87.516,350.352,89.496,351.792,91.476,353.268L91.476,353.268z M90.432,354.42c-1.404-1.044-2.844-2.088-4.284-3.132
		c-1.548,2.016-3.096,4.032-4.68,6.084c1.188,0.864,2.412,1.764,3.636,2.664c2.448,1.8,4.932,2.988,7.02,0.36
		C93.96,358.02,92.7,356.148,90.432,354.42L90.432,354.42z"/>
	<path fill-rule="evenodd" clip-rule="evenodd" fill="#FFFFFF" stroke="#FFFFFF" stroke-width="0.036" stroke-miterlimit="10" d="
		M47.196,337.068c4.464-4.104,8.928-8.208,13.392-12.348c1.044,1.152,2.088,2.304,3.168,3.492c1.584,1.728,3.492,3.492,4.068,5.868
		c0.72,3.348-1.26,6.264-3.456,8.28c-2.268,2.088-5.58,4.032-8.892,2.628c-1.836-0.792-3.276-2.412-4.608-3.888
		C49.644,339.768,48.42,338.436,47.196,337.068L47.196,337.068z M62.856,329.508c-0.72-0.792-1.44-1.584-2.16-2.376
		c-3.672,3.42-7.344,6.84-11.052,10.296c0.648,0.684,1.296,1.404,1.944,2.124c1.296,1.44,2.592,3.24,4.392,3.888
		c2.7,1.008,5.292-0.792,7.056-2.448c1.728-1.62,3.672-3.96,3.06-6.696C65.7,332.388,64.116,330.912,62.856,329.508L62.856,329.508z
		"/>
	<path fill-rule="evenodd" clip-rule="evenodd" fill="#0098D7" stroke="#0098D7" stroke-width="0.036" stroke-miterlimit="10" d="
		M358.236,127.116c11.808,23.472,18.432,49.968,18.432,78.048c0,96.084-77.904,173.988-173.988,173.988
		S28.656,301.248,28.656,205.164c0-15.408,2.016-30.312,5.76-44.532c0,0,7.848,3.024,15.876,9.18
		c8.028,6.12,7.524,7.236,15.228,15.552c7.704,8.28,5.004,7.524,15.552,17.64c10.548,10.116,11.664,12.78,26.64,22.824
		c14.94,10.008,16.776,10.872,33.192,17.28c16.416,6.372,16.92,5.94,32.508,8.28c9.756,0.576,19.584,1.152,29.376,1.728
		c-5.868,4.176-9.612,5.796-19.008,10.044c-9.432,4.248-9.18,3.708-18.684,6.912c-9.504,3.204-13.14,4.14-19.368,5.904
		c0.216,0,0.432,0,0.684,0c0.36,1.728,0.684,2.556,6.228,4.464c5.544,1.908,6.156,3.384,15.912,3.132
		c9.792-0.288,8.208,1.728,23.184-4.14c14.94-5.904,20.736-11.952,36.648-19.404c15.912-7.416,13.212-6.912,26.964-10.368
		c13.752-3.456,18.684-3.456,28.008-3.456c0-0.108,0-0.216,0-0.324c0.684-2.088,0.432-3.492-2.412-5.544
		c-2.844-2.088-2.16-2.34-9-2.772c-6.84-0.432-11.484,0.612-18.324,1.044c-6.84,0.432-5.688,0.756-8.964,0.684
		c-1.512-0.36-3.024-0.684-4.5-1.044c3.456-0.324,5.76-1.26,14.148-5.508l0,0c8.388-4.248,8.496-3.924,19.368-11.412
		c10.908-7.56,11.412-6.156,24.228-18.684c12.78-12.528,15.912-17.82,26.964-31.464c11.052-13.68,8.82-11.916,17.28-23.148
		C350.604,136.764,352.692,134.352,358.236,127.116L358.236,127.116z"/>
	<path fill-rule="evenodd" clip-rule="evenodd" fill="#FFFFFF" d="M166.14,141.048v-32.112V108.9l0,0
		c0-3.204,2.592-5.832,5.796-5.832l0,0h16.668h0c3.204,0,5.796,2.628,5.796,5.832l0,0v32.112v0.036v0
		c0,3.204-2.592,5.832-5.796,5.832l0,0h-16.668h0C168.732,146.88,166.14,144.252,166.14,141.048L166.14,141.048z M175.572,136.656
		v-23.364l0,0c0-0.792,0.648-1.476,1.44-1.476l0,0h6.516l0,0c0.792,0,1.44,0.684,1.44,1.476l0,0v23.364v0
		c0,0.792-0.648,1.44-1.44,1.44l0,0h-6.516l0,0C176.22,138.096,175.572,137.448,175.572,136.656L175.572,136.656L175.572,136.656z"
		/>
</g>
</svg>
